HIERARCHY
ROOT Hips
{
	OFFSET 0.000000 0.000000 0.000000
	CHANNELS 6 Xposition Yposition Zposition Xrotation Yrotation Zrotation
	JOINT LeftUpLeg_virtual
	{
		OFFSET 0.000000 0.000000 0.000000
		CHANNELS 3 Xrotation Yrotation Zrotation
		JOINT LeftUpLeg
		{
			OFFSET 10.205400 -3.823500 0.155100
			CHANNELS 3 Xrotation Yrotation Zrotation
			JOINT LeftLeg
			{
				OFFSET 0.708757 -12.982077 0.567790
				CHANNELS 3 Xrotation Yrotation Zrotation
				JOINT LeftFoot
				{
					OFFSET -0.708756 -10.717838 -2.184338
					CHANNELS 3 Xrotation Yrotation Zrotation
					JOINT LeftToeBase
					{
						OFFSET 0.108149 -7.191104 7.560241
						CHANNELS 3 Xrotation Yrotation Zrotation
						JOINT LeftToe_End
						{
							OFFSET 0.070230 0.081724 4.490308
							CHANNELS 3 Xrotation Yrotation Zrotation
							End Site
							{
								OFFSET 0 0 0
							}
						}
					}
				}
			}
		}
	}
	JOINT RightUpLeg_virtual
	{
		OFFSET 0.000000 0.000000 0.000000
		CHANNELS 3 Xrotation Yrotation Zrotation
		JOINT RightUpLeg
		{
			OFFSET -10.205400 -3.823500 0.005500
			CHANNELS 3 Xrotation Yrotation Zrotation
			JOINT RightLeg
			{
				OFFSET -0.708756 -12.982134 0.610632
				CHANNELS 3 Xrotation Yrotation Zrotation
				JOINT RightFoot
				{
					OFFSET 0.708754 -10.717769 -1.945823
					CHANNELS 3 Xrotation Yrotation Zrotation
					JOINT RightToeBase
					{
						OFFSET -0.108140 -7.191069 7.372968
						CHANNELS 3 Xrotation Yrotation Zrotation
						JOINT RightToe_End
						{
							OFFSET -0.070227 0.081735 4.479403
							CHANNELS 3 Xrotation Yrotation Zrotation
							End Site
							{
								OFFSET 0 0 0
							}
						}
					}
				}
			}
		}
	}
	JOINT Spine_virtual
	{
		OFFSET 0.000000 0.000000 0.000000
		CHANNELS 3 Xrotation Yrotation Zrotation
		JOINT Spine
		{
			OFFSET 0.000000 6.876099 0.125700
			CHANNELS 3 Xrotation Yrotation Zrotation
			JOINT Spine1
			{
				OFFSET 0.000000 5.730043 0.104720
				CHANNELS 3 Xrotation Yrotation Zrotation
				JOINT Spine1_split
				{
					OFFSET 0.000000 5.730043 0.104720
					CHANNELS 3 Xrotation Yrotation Zrotation
					JOINT Spine2
					{
						OFFSET 0.000000 5.730043 0.104720
						CHANNELS 3 Xrotation Yrotation Zrotation
						JOINT Neck_virtual
						{
							OFFSET 0.000000 0.000000 0.000000
							CHANNELS 3 Xrotation Yrotation Zrotation
							JOINT Neck
							{
								OFFSET 0.000000 10.314075 0.188496
								CHANNELS 3 Xrotation Yrotation Zrotation
								JOINT Head
								{
									OFFSET 0.000000 7.643700 -2.377400
									CHANNELS 3 Xrotation Yrotation Zrotation
									JOINT HeadTop_End
									{
										OFFSET 0.000000 43.788605 -13.619600
										CHANNELS 3 Xrotation Yrotation Zrotation
										End Site
										{
											OFFSET 0 0 0
										}
									}
								}
							}
						}
						JOINT LeftShoulder_virtual
						{
							OFFSET 0.000000 0.000000 0.000000
							CHANNELS 3 Xrotation Yrotation Zrotation
							JOINT LeftShoulder
							{
								OFFSET 2.196100 4.412489 0.087492
								CHANNELS 3 Xrotation Yrotation Zrotation
								JOINT LeftShoulder_split
								{
									OFFSET 2.196100 4.412489 0.087492
									CHANNELS 3 Xrotation Yrotation Zrotation
									JOINT LeftArm
									{
										OFFSET 8.771219 -2.981674 -0.026999
										CHANNELS 3 Xrotation Yrotation Zrotation
										JOINT LeftForeArm
										{
											OFFSET 8.512804 0.000000 -0.000000
											CHANNELS 3 Xrotation Yrotation Zrotation
											JOINT LeftHand
											{
												OFFSET 18.484802 0.000000 -0.000000
												CHANNELS 3 Xrotation Yrotation Zrotation
												End Site
												{
													OFFSET 0 0 0
												}
											}
										}
									}
								}
							}
						}
						JOINT RightShoulder_virtual
						{
							OFFSET 0.000000 0.000000 0.000000
							CHANNELS 3 Xrotation Yrotation Zrotation
							JOINT RightShoulder
							{
								OFFSET -2.196100 4.412496 0.070690
								CHANNELS 3 Xrotation Yrotation Zrotation
								JOINT RightShoulder_split
								{
									OFFSET -2.196100 4.412496 0.070690
									CHANNELS 3 Xrotation Yrotation Zrotation
									JOINT RightArm
									{
										OFFSET -8.771282 -2.981682 -0.094208
										CHANNELS 3 Xrotation Yrotation Zrotation
										JOINT RightForeArm
										{
											OFFSET -8.494598 0.000000 0.000000
											CHANNELS 3 Xrotation Yrotation Zrotation
											JOINT RightHand
											{
												OFFSET -18.483803 0.000000 0.000001
												CHANNELS 3 Xrotation Yrotation Zrotation
												End Site
												{
													OFFSET 0 0 0
												}
											}
										}
									}
								}
							}
						}
					}
				}
			}
		}
	}
}
MOTION
Frames: 10
Frame Time: 0.03333333
-2.013131 31.908434 -3.858948 0.000000 0.000000 0.000000 -4.174300 -7.718798 2.656316 -19.994610 6.150147 6.221051 36.050927 7.602534 -2.361190 -13.408263 0.860213 -3.846361 1.593372 0.239343 0.260343 0.000000 0.000000 0.000000 -3.677110 -5.533929 2.832347 -0.387992 -14.961108 -16.111260 28.120393 1.195318 -4.931254 -23.218525 -5.725329 14.887166 -4.979548 -0.731162 0.684882 0.000000 0.000000 0.000000 -5.407316 -4.001959 1.107323 8.944876 3.200327 -4.023347 1.850366 0.529013 -1.135005 0.714445 0.937327 0.103435 0.000000 0.000000 0.000000 1.167515 0.076790 -0.152372 -4.762383 -1.076994 1.530268 8.023161 3.997111 -4.435010 0.000000 0.000000 0.000000 0.631005 0.413543 -0.870494 0.335930 3.277789 0.257006 -2.510451 -2.766390 0.369050 -13.041482 -4.919782 -65.525720 -1.761014 -34.394087 0.971792 0.000000 0.000000 0.000000 2.403599 0.199495 -0.609198 4.533813 12.236101 -5.794944 -0.942381 0.506499 -1.831425 -1.146139 2.619657 76.274314 -0.579621 36.270135 -0.059154 0.000000 0.000000 0.000000 
-2.090837 31.906965 -3.952620 0.000000 0.000000 0.000000 -3.919346 -7.450798 2.757820 -20.033249 6.186240 6.146133 36.097000 7.586657 -2.350897 -13.334919 0.973110 -3.983967 1.696268 0.205993 0.334735 0.000000 0.000000 0.000000 -3.532391 -5.590856 2.901128 -0.667793 -14.969461 -16.134268 28.117495 1.004437 -5.009054 -23.602134 -5.720541 14.846989 -4.596863 -0.651695 0.526065 0.000000 0.000000 0.000000 -5.002420 -4.204663 1.318466 8.991726 3.101053 -4.191560 1.828488 0.458212 -1.160158 0.722694 1.117628 -0.072895 0.000000 0.000000 0.000000 1.231085 0.043432 -0.172564 -4.773212 -0.919709 1.664559 7.793930 4.170635 -4.737000 0.000000 0.000000 0.000000 0.722835 0.352366 -0.866114 0.368217 3.152362 0.255549 -2.401589 -3.092346 0.440556 -13.449053 -4.882786 -65.454406 -1.929312 -35.063411 0.751633 0.000000 0.000000 0.000000 2.426671 0.135051 -0.619142 4.514368 12.396137 -5.710526 -0.986990 0.126035 -1.825984 -0.807411 2.459311 76.215861 -0.662359 36.399898 0.070028 0.000000 0.000000 0.000000 
-2.176597 31.918093 -4.073410 0.000000 0.000000 0.000000 -3.578685 -7.279606 2.678923 -20.286135 6.301045 6.322235 35.945735 7.594704 -2.399379 -13.184388 1.400272 -4.276220 1.889273 0.171223 0.323437 0.000000 0.000000 0.000000 -3.282292 -5.876738 2.797554 -1.241782 -14.850559 -16.048559 28.252140 0.984074 -4.977704 -23.942513 -5.759888 15.242749 -4.290400 -0.611959 0.400305 0.000000 0.000000 0.000000 -4.391241 -4.733539 1.462012 9.216404 3.011077 -4.344343 1.814816 0.424461 -1.211450 0.789177 1.370301 -0.150667 0.000000 0.000000 0.000000 1.308174 0.059807 -0.245979 -4.814431 -0.648593 1.794995 7.095403 4.525936 -5.021102 0.000000 0.000000 0.000000 0.836839 0.353314 -0.870606 0.384560 2.941383 0.354609 -2.159503 -3.216852 0.459763 -13.949810 -5.022860 -65.305720 -1.754864 -35.657064 0.739338 0.000000 0.000000 0.000000 2.461814 0.111312 -0.636852 4.448246 12.464316 -5.712781 -0.968670 -0.034208 -1.829959 -0.249400 2.009372 76.178001 -0.757122 36.767332 0.166396 0.000000 0.000000 0.000000 
-2.246153 31.931032 -4.187397 0.000000 0.000000 0.000000 -3.168470 -7.264754 2.428631 -20.692521 6.555245 6.740907 35.593188 7.743484 -2.560721 -13.055946 2.173104 -4.495254 2.163754 0.141033 0.188140 0.000000 0.000000 0.000000 -2.935424 -6.388449 2.517175 -2.128877 -14.634633 -15.846266 28.643740 1.115188 -4.843829 -24.262102 -5.799739 15.865554 -3.944202 -0.610544 0.374229 0.000000 0.000000 0.000000 -3.709848 -5.521606 1.494867 9.596960 2.930231 -4.462478 1.828878 0.436715 -1.257805 0.854158 1.614490 -0.170010 0.000000 0.000000 0.000000 1.432188 0.133767 -0.341123 -4.891113 -0.317502 1.856760 5.941386 4.946316 -5.217574 0.000000 0.000000 0.000000 0.996375 0.419747 -0.858646 0.388954 2.673643 0.541883 -1.965336 -3.071815 0.383274 -14.612684 -5.328507 -65.250559 -1.266620 -35.776435 0.950962 0.000000 0.000000 0.000000 2.534910 0.137499 -0.641375 4.346720 12.463006 -5.881491 -0.973434 0.040293 -1.842272 0.397882 1.432686 76.228688 -0.810321 37.215385 0.184872 0.000000 0.000000 0.000000 
-2.308997 31.945198 -4.289604 0.000000 0.000000 0.000000 -2.656301 -7.573093 2.057983 -21.171626 6.848961 7.372761 35.231618 8.045661 -2.883094 -13.016665 3.282368 -4.570933 2.486711 0.124490 -0.035373 0.000000 0.000000 0.000000 -2.476307 -7.163292 2.120332 -3.422043 -14.293089 -15.666405 29.383102 1.372240 -4.610538 -24.578284 -5.742368 16.478590 -3.271668 -0.625786 0.501119 0.000000 0.000000 0.000000 -3.044891 -6.514541 1.404658 10.131182 2.864609 -4.520492 1.881959 0.496202 -1.273342 0.851626 1.677104 -0.060041 0.000000 0.000000 0.000000 1.612450 0.268927 -0.422409 -5.031376 0.026187 1.802269 4.363009 5.308663 -5.291155 0.000000 0.000000 0.000000 1.200258 0.542789 -0.808340 0.382840 2.347527 0.725277 -1.921080 -2.876617 0.339152 -15.502965 -5.711999 -65.264466 -0.599561 -35.245292 1.320747 0.000000 0.000000 0.000000 2.649745 0.215289 -0.614354 4.229499 12.415832 -6.320212 -0.958419 0.268036 -1.733303 1.031092 0.934552 76.299538 -0.770041 37.569326 0.085496 0.000000 0.000000 0.000000 
-2.367658 31.950809 -4.418289 0.000000 0.000000 0.000000 -2.055060 -8.280002 1.640381 -21.669948 7.041414 8.123298 35.094144 8.443455 -3.358775 -13.114382 4.628729 -4.463413 2.811748 0.120395 -0.266639 0.000000 0.000000 0.000000 -1.889515 -8.275517 1.692651 -5.282142 -13.829772 -15.665041 30.534036 1.789104 -4.281811 -24.739545 -5.501589 17.040110 -2.348724 -0.621967 0.745529 0.000000 0.000000 0.000000 -2.474218 -7.709208 1.176912 10.779428 2.807256 -4.506527 1.971962 0.601733 -1.251143 0.695251 1.613998 0.128152 0.000000 0.000000 0.000000 1.844351 0.443543 -0.467379 -5.269133 0.333673 1.618005 2.433855 5.491124 -5.202465 0.000000 0.000000 0.000000 1.456911 0.705940 -0.721380 0.378016 1.992297 0.861365 -1.941346 -2.729087 0.351408 -16.510102 -6.056880 -65.212269 0.024093 -34.056768 1.679573 0.000000 0.000000 0.000000 2.810999 0.327365 -0.555987 4.118698 12.339148 -7.052337 -0.960931 0.596131 -1.480907 1.687108 0.704425 76.358154 -0.594238 37.739643 -0.144326 0.000000 0.000000 0.000000 
-2.421367 31.942329 -4.607655 0.000000 0.000000 0.000000 -1.417801 -9.427451 1.270336 -22.162316 6.963123 8.888490 35.259410 8.804956 -3.942562 -13.377219 6.109961 -4.178120 3.076198 0.127670 -0.449044 0.000000 0.000000 0.000000 -1.182048 -9.638983 1.330827 -7.778038 -13.174377 -15.906119 31.949514 2.518181 -3.910802 -24.541568 -5.024627 17.848889 -1.637596 -0.574737 0.952574 0.000000 0.000000 0.000000 -1.881277 -8.946643 0.862763 11.532301 2.739179 -4.420239 2.096712 0.739946 -1.210674 0.559017 1.336801 0.286698 0.000000 0.000000 0.000000 2.106477 0.642702 -0.473852 -5.618775 0.569152 1.358337 0.316541 5.502424 -4.994025 0.000000 0.000000 0.000000 1.761838 0.875539 -0.611251 0.385231 1.699549 0.910364 -1.913216 -2.798909 0.523861 -17.339689 -6.284392 -64.862461 0.369927 -32.325660 1.831201 0.000000 0.000000 0.000000 3.012855 0.466805 -0.488623 4.070794 12.284611 -8.001317 -0.927758 0.993708 -1.103768 2.450982 0.670681 76.237731 -0.312085 37.746375 -0.414812 0.000000 0.000000 0.000000 
-2.465908 31.913788 -4.876961 0.000000 0.000000 0.000000 -0.748264 -10.923982 1.023300 -22.707201 6.494091 9.561730 35.673327 8.999272 -4.575799 -13.681770 7.617685 -3.898625 3.234255 0.140319 -0.579253 0.000000 0.000000 0.000000 -0.351187 -11.112685 1.123024 -10.753539 -12.316962 -16.293727 33.482554 3.600738 -3.549339 -23.994618 -4.346441 18.956078 -1.313563 -0.456132 1.011388 0.000000 0.000000 0.000000 -1.202339 -10.157494 0.551635 12.404731 2.627329 -4.254819 2.235980 0.899965 -1.176864 0.538388 0.964818 0.280229 0.000000 0.000000 0.000000 2.372791 0.843383 -0.453495 -6.068325 0.684888 1.114489 -1.788036 5.324914 -4.727377 0.000000 0.000000 0.000000 2.058121 1.041127 -0.499529 0.396101 1.551278 0.880320 -1.773403 -3.117397 0.855915 -17.569420 -6.357491 -63.929416 0.298208 -30.425467 1.647352 0.000000 0.000000 0.000000 3.237819 0.608756 -0.435041 4.100769 12.290386 -9.055881 -0.711570 1.329056 -0.717315 3.349259 0.468006 75.837933 0.006611 37.692307 -0.648555 0.000000 0.000000 0.000000 
-2.498024 31.881647 -5.167088 0.000000 0.000000 0.000000 0.005806 -12.481256 0.924998 -23.366808 5.803732 10.131050 36.185895 9.061129 -5.203630 -13.960300 8.997757 -3.641486 3.262360 0.151328 -0.699715 0.000000 0.000000 0.000000 0.630561 -12.616758 1.080804 -13.957873 -11.411426 -16.539462 34.955942 4.794100 -3.219297 -23.525702 -3.668790 19.859733 -0.901350 -0.259264 0.908817 0.000000 0.000000 0.000000 -0.403622 -11.300753 0.303869 13.389321 2.411476 -4.059974 2.367657 1.050892 -1.170763 0.757651 0.776348 0.044264 0.000000 0.000000 0.000000 2.625552 1.005466 -0.421323 -6.501750 0.644436 0.956461 -3.703830 4.990812 -4.456923 0.000000 0.000000 0.000000 2.312729 1.178290 -0.410631 0.405378 1.630317 0.919215 -1.634066 -3.522980 1.113848 -16.966858 -6.307956 -62.305587 -0.229259 -28.640170 1.124921 0.000000 0.000000 0.000000 3.462703 0.718140 -0.411910 4.183735 12.341599 -10.031629 -0.358993 1.453953 -0.535521 4.406043 -0.378026 75.192173 0.296076 37.626829 -0.785300 0.000000 0.000000 0.000000 
-2.516987 31.865597 -5.485651 0.000000 0.000000 0.000000 0.935984 -13.862705 0.973238 -24.243241 5.147157 10.620287 36.630158 9.087395 -5.766191 -14.206090 10.091704 -3.275940 3.196352 0.146326 -0.856533 0.000000 0.000000 0.000000 1.785736 -13.892821 1.182432 -17.191129 -10.566206 -16.429195 36.242042 5.821071 -2.928117 -23.592384 -3.163582 19.980185 -0.032812 -0.006017 0.703822 0.000000 0.000000 0.000000 0.633611 -12.289284 0.199750 14.490193 2.056586 -3.900611 2.464431 1.151230 -1.188903 1.068088 0.822171 -0.130691 0.000000 0.000000 0.000000 2.856285 1.091224 -0.393858 -6.811492 0.503959 0.913471 -5.359362 4.573322 -4.223433 0.000000 0.000000 0.000000 2.521097 1.262094 -0.353935 0.422284 1.957919 1.123093 -1.584835 -3.803916 1.344301 -15.672976 -5.981966 -60.098377 -1.097889 -27.025769 0.388660 0.000000 0.000000 0.000000 3.666333 0.780247 -0.431176 4.266784 12.435410 -10.808358 0.097686 1.328883 -0.399671 5.551835 -2.240985 74.279892 0.520638 37.421094 -0.791945 0.000000 0.000000 0.000000 
